<?xml version="1.0" encoding="UTF-8"?>
<!-- Generated by Pixelmator Pro 4.0 -->
<svg viewBox="0 0 1000 1000" xmlns="http://www.w3.org/2000/svg">
    <path fill="currentColor" fill-rule="evenodd" d="M 909 370 C 909 169.999939 718.090881 0 499.909088 0 C 281.727264 0 90.818184 169.999939 90.818184 370 C 90.818184 700 382.349579 794.265503 499.909088 1000 C 618.565002 794.175964 909 700 909 370 Z M 490.34375 666.9375 C 487.075836 665.558838 483.931335 663.902893 480.945404 661.984619 C 432.302582 630.745422 390.202057 597.985291 354.644806 563.703979 C 319.087097 529.422485 291.632294 494.180939 272.27948 457.979187 C 252.931976 421.779175 243.254822 384.053101 243.254822 347.095032 C 243.254822 316.45459 249.625397 290.437561 262.36026 266.755066 C 274.315033 243.912659 292.122742 224.706787 313.936096 211.130066 C 335.675232 197.638367 360.787384 190.673096 386.322083 191.052612 C 411.607422 191.052612 434.567596 197.544312 453.66333 210.577881 C 472.856537 223.357056 488.627747 240.698914 499.583649 261.071655 C 510.539581 240.698914 526.310791 223.357056 545.503967 210.577881 C 564.599731 197.544312 587.570068 191.052612 612.845276 191.052612 C 638.38092 190.671387 663.494019 197.636902 685.233643 211.130066 C 707.045044 224.705017 724.849365 243.911682 736.796875 266.755066 C 749.534119 290.437561 755.912476 316.45459 755.912476 347.095032 C 755.912476 384.053101 746.235352 421.779175 726.882019 457.979187 C 707.541321 494.180939 680.087036 529.422485 644.518616 563.703979 C 608.970581 597.987976 566.871521 630.748108 518.221924 661.984619 C 515.236023 663.902893 512.091431 665.558838 508.823212 666.93396 C 503.023163 669.931885 496.144165 669.931885 490.34375 666.9375 Z"/>
</svg>
